<svg width="322" height="256" viewBox="0 0 322 256" fill="none" xmlns="http://www.w3.org/2000/svg">
<mask id="mask0_2_1181" style="mask-type:alpha" maskUnits="userSpaceOnUse" x="78" y="0" width="244" height="205">
<rect x="133.292" width="211.7" height="121.078" transform="rotate(27.1719 133.292 0)" fill="#D9D9D9"/>
</mask>
<g mask="url(#mask0_2_1181)">
<path fill-rule="evenodd" clip-rule="evenodd" d="M190.655 56.3212C145.035 56.3212 108.053 93.3033 108.053 138.923C108.053 184.543 145.035 221.525 190.655 221.525C236.275 221.525 273.257 184.543 273.257 138.923C273.257 93.3033 236.275 56.3212 190.655 56.3212ZM100.572 138.923C100.572 89.1717 140.904 48.8403 190.655 48.8403C240.406 48.8403 280.738 89.1717 280.738 138.923C280.738 188.674 240.406 229.006 190.655 229.006C140.904 229.006 100.572 188.674 100.572 138.923Z" fill="#FF0000"/>
<path fill-rule="evenodd" clip-rule="evenodd" d="M190.343 63.1787C148.697 63.1787 114.911 97.0767 114.911 138.923C114.911 180.769 148.697 214.667 190.343 214.667C231.99 214.667 265.776 180.769 265.776 138.923C265.776 97.0767 231.99 63.1787 190.343 63.1787ZM107.43 138.923C107.43 92.9729 144.538 55.6978 190.343 55.6978C236.149 55.6978 273.257 92.9729 273.257 138.923C273.257 184.873 236.149 222.148 190.343 222.148C144.538 222.148 107.43 184.873 107.43 138.923Z" fill="#FF8A00"/>
<path fill-rule="evenodd" clip-rule="evenodd" d="M190.343 70.6596C152.83 70.6596 122.392 101.207 122.392 138.923C122.392 176.639 152.83 207.187 190.343 207.187C227.857 207.187 258.295 176.639 258.295 138.923C258.295 101.207 227.857 70.6596 190.343 70.6596ZM114.911 138.923C114.911 97.1059 148.668 63.1787 190.343 63.1787C232.019 63.1787 265.776 97.1059 265.776 138.923C265.776 180.74 232.019 214.667 190.343 214.667C148.668 214.667 114.911 180.74 114.911 138.923Z" fill="#FFD600"/>
<path fill-rule="evenodd" clip-rule="evenodd" d="M190.343 78.1405C156.585 78.1405 129.249 105.371 129.249 138.923C129.249 172.475 156.585 199.706 190.343 199.706C224.102 199.706 251.438 172.475 251.438 138.923C251.438 105.371 224.102 78.1405 190.343 78.1405ZM121.768 138.923C121.768 101.205 152.487 70.6596 190.343 70.6596C228.199 70.6596 258.919 101.205 258.919 138.923C258.919 176.641 228.199 207.186 190.343 207.186C152.487 207.186 121.768 176.641 121.768 138.923Z" fill="#0085FF"/>
<path fill-rule="evenodd" clip-rule="evenodd" d="M190.343 85.6215C160.714 85.6215 136.73 109.505 136.73 138.923C136.73 168.342 160.714 192.225 190.343 192.225C219.972 192.225 243.957 168.342 243.957 138.923C243.957 109.505 219.972 85.6215 190.343 85.6215ZM129.249 138.923C129.249 105.335 156.621 78.1406 190.343 78.1406C224.065 78.1406 251.437 105.335 251.437 138.923C251.437 172.512 224.065 199.706 190.343 199.706C156.621 199.706 129.249 172.512 129.249 138.923Z" fill="#0031DE"/>
</g>
<g filter="url(#filter0_bd_2_1181)">
<mask id="path-7-outside-1_2_1181" maskUnits="userSpaceOnUse" x="15" y="82" width="255" height="155" fill="black">
<rect fill="white" x="15" y="82" width="255" height="155"/>
<path fill-rule="evenodd" clip-rule="evenodd" d="M197.882 153.014C197.882 155.423 197.758 157.804 197.517 160.149C204.953 153.687 214.664 149.775 225.288 149.775C248.68 149.775 267.643 168.738 267.643 192.13C267.643 215.523 248.68 234.486 225.288 234.486H60.6379C60.6256 234.486 60.6133 234.486 60.601 234.486C60.5887 234.486 60.5764 234.486 60.5641 234.486H60.3518V234.485C36.3863 234.351 17 214.882 17 190.885C17 166.976 36.2441 147.562 60.0878 147.287C62.999 111.851 92.6809 84 128.868 84C166.983 84 197.882 114.899 197.882 153.014Z"/>
</mask>
<path fill-rule="evenodd" clip-rule="evenodd" d="M197.882 153.014C197.882 155.423 197.758 157.804 197.517 160.149C204.953 153.687 214.664 149.775 225.288 149.775C248.68 149.775 267.643 168.738 267.643 192.13C267.643 215.523 248.68 234.486 225.288 234.486H60.6379C60.6256 234.486 60.6133 234.486 60.601 234.486C60.5887 234.486 60.5764 234.486 60.5641 234.486H60.3518V234.485C36.3863 234.351 17 214.882 17 190.885C17 166.976 36.2441 147.562 60.0878 147.287C62.999 111.851 92.6809 84 128.868 84C166.983 84 197.882 114.899 197.882 153.014Z" fill="url(#paint0_linear_2_1181)" shape-rendering="crispEdges"/>
<path d="M197.517 160.149L195.528 159.945L195.011 164.977L198.829 161.659L197.517 160.149ZM60.3518 234.486H58.3518V236.486H60.3518V234.486ZM60.3518 234.485H62.3518V232.496L60.363 232.485L60.3518 234.485ZM60.0878 147.287L60.1109 149.287L61.932 149.266L62.0811 147.45L60.0878 147.287ZM199.507 160.353C199.755 157.94 199.882 155.492 199.882 153.014H195.882C195.882 155.355 195.762 157.667 195.528 159.945L199.507 160.353ZM225.288 147.775C214.163 147.775 203.991 151.873 196.206 158.639L198.829 161.659C205.915 155.501 215.164 151.775 225.288 151.775V147.775ZM269.643 192.13C269.643 167.634 249.785 147.775 225.288 147.775V151.775C247.576 151.775 265.643 169.843 265.643 192.13H269.643ZM225.288 236.486C249.785 236.486 269.643 216.627 269.643 192.13H265.643C265.643 214.418 247.576 232.486 225.288 232.486V236.486ZM225.288 232.486H60.6379V236.486H225.288V232.486ZM60.601 236.486C60.6079 236.486 60.6146 236.486 60.6207 236.486C60.6269 236.486 60.6324 236.486 60.6379 236.486V232.486C60.631 232.486 60.6242 232.486 60.6182 232.486C60.6119 232.486 60.6064 232.486 60.601 232.486V236.486ZM60.5641 236.486C60.5695 236.486 60.5751 236.486 60.5813 236.486C60.5873 236.486 60.5941 236.486 60.601 236.486V232.486C60.5956 232.486 60.59 232.486 60.5838 232.486C60.5778 232.486 60.571 232.486 60.5641 232.486V236.486ZM60.5641 232.486H60.3518V236.486H60.5641V232.486ZM62.3518 234.486V234.485H58.3518V234.486H62.3518ZM15 190.885C15 215.983 35.2756 236.345 60.3407 236.485L60.363 232.485C37.4971 232.357 19 213.781 19 190.885H15ZM60.0647 145.287C35.1268 145.574 15 165.879 15 190.885H19C19 168.073 37.3614 149.549 60.1109 149.287L60.0647 145.287ZM128.868 82C91.6312 82 61.0902 110.658 58.0945 147.123L62.0811 147.45C64.9077 113.044 93.7306 86 128.868 86V82ZM199.882 153.014C199.882 113.794 168.088 82 128.868 82V86C165.879 86 195.882 116.003 195.882 153.014H199.882Z" fill="url(#paint1_linear_2_1181)" mask="url(#path-7-outside-1_2_1181)"/>
</g>
<defs>
<filter id="filter0_bd_2_1181" x="0" y="71" width="284.643" height="184.486" filterUnits="userSpaceOnUse" color-interpolation-filters="sRGB">
<feFlood flood-opacity="0" result="BackgroundImageFix"/>
<feGaussianBlur in="BackgroundImage" stdDeviation="5"/>
<feComposite in2="SourceAlpha" operator="in" result="effect1_backgroundBlur_2_1181"/>
<feColorMatrix in="SourceAlpha" type="matrix" values="0 0 0 0 0 0 0 0 0 0 0 0 0 0 0 0 0 0 127 0" result="hardAlpha"/>
<feOffset dy="4"/>
<feGaussianBlur stdDeviation="7.5"/>
<feComposite in2="hardAlpha" operator="out"/>
<feColorMatrix type="matrix" values="0 0 0 0 0 0 0 0 0 0 0 0 0 0 0 0 0 0 0.1 0"/>
<feBlend mode="normal" in2="effect1_backgroundBlur_2_1181" result="effect2_dropShadow_2_1181"/>
<feBlend mode="normal" in="SourceGraphic" in2="effect2_dropShadow_2_1181" result="shape"/>
</filter>
<linearGradient id="paint0_linear_2_1181" x1="94.9027" y1="83.3724" x2="155.193" y2="235.113" gradientUnits="userSpaceOnUse">
<stop stop-color="white"/>
<stop offset="0.708333" stop-color="#9DDCFF" stop-opacity="0.69"/>
</linearGradient>
<linearGradient id="paint1_linear_2_1181" x1="134.193" y1="31.8889" x2="217.515" y2="296.081" gradientUnits="userSpaceOnUse">
<stop stop-color="white"/>
<stop offset="0.713542" stop-color="#85C6EC" stop-opacity="0.71"/>
</linearGradient>
</defs>
</svg>
