<svg width="142" height="138" viewBox="0 0 142 138" fill="none" xmlns="http://www.w3.org/2000/svg">
<path fill-rule="evenodd" clip-rule="evenodd" d="M106.461 0C105.628 0 104.952 0.675491 104.952 1.50875V6.24103L101.509 1.89286C100.992 1.23958 100.043 1.1293 99.3901 1.64655C98.7368 2.1638 98.6265 3.1127 99.1438 3.76598L104.952 11.1021V13.8734L101.51 9.52531C100.992 8.87203 100.043 8.76175 99.3901 9.279C98.7368 9.79625 98.6265 10.7452 99.1438 11.3984L104.952 18.7345V31.7632L95.2966 22.1076L94.2165 12.8132C94.1203 11.9855 93.3714 11.3925 92.5437 11.4887C91.716 11.5848 91.123 12.3338 91.2192 13.1615L91.8594 18.6703L89.8996 16.7105L88.8194 7.41613C88.7232 6.58844 87.9743 5.99544 87.1466 6.09163C86.3189 6.18782 85.7259 6.93677 85.8221 7.76446L86.4623 13.2732L83.5592 10.3701C82.97 9.78088 82.0147 9.78088 81.4255 10.3701C80.8363 10.9593 80.8363 11.9146 81.4255 12.5038L84.3985 15.4768L78.7646 14.8221C77.9369 14.7259 77.1879 15.3189 77.0917 16.1466C76.9955 16.9743 77.5885 17.7232 78.4162 17.8194L87.8358 18.9141L89.7956 20.8739L84.1616 20.2191C83.3339 20.1229 82.585 20.7159 82.4888 21.5436C82.3926 22.3713 82.9856 23.1203 83.8133 23.2164L93.2328 24.3111L102.874 33.9522H89.1082L81.7722 28.1438C81.1189 27.6265 80.17 27.7368 79.6528 28.3901C79.1355 29.0434 79.2458 29.9923 79.8991 30.5095L84.2472 33.9522H81.4757L74.1397 28.1438C73.4864 27.6265 72.5375 27.7368 72.0202 28.3901C71.503 29.0434 71.6132 29.9923 72.2665 30.5095L76.6146 33.9522H72.5087C71.6755 33.9522 71 34.6277 71 35.461C71 36.2942 71.6755 36.9697 72.5088 36.9697H76.7132L72.2665 40.4905C71.6132 41.0077 71.503 41.9566 72.0202 42.6099C72.5375 43.2632 73.4864 43.3734 74.1397 42.8562L81.5742 36.9697H84.3458L79.8991 40.4905C79.2458 41.0077 79.1355 41.9566 79.6528 42.6099C80.17 43.2632 81.1189 43.3734 81.7722 42.8562L89.2068 36.9697H102.841L93.1076 46.7034L83.813 47.7836C82.9853 47.8798 82.3923 48.6287 82.4885 49.4564C82.5847 50.2841 83.3337 50.8771 84.1614 50.7809L89.6703 50.1407L87.7106 52.1004L78.416 53.1806C77.5883 53.2768 76.9953 54.0257 77.0915 54.8534C77.1876 55.6811 77.9366 56.2741 78.7643 56.1779L84.2733 55.5377L81.37 58.441C80.7808 59.0302 80.7808 59.9855 81.37 60.5747C81.9592 61.1639 82.9145 61.1639 83.5037 60.5747L86.4768 57.6017L85.822 63.2356C85.7258 64.0633 86.3188 64.8122 87.1465 64.9084C87.9742 65.0046 88.7232 64.4116 88.8193 63.5839L89.914 54.1644L91.8738 52.2046L91.2191 57.8385C91.1229 58.6662 91.7159 59.4152 92.5436 59.5114C93.3713 59.6076 94.1202 59.0146 94.2164 58.1869L95.3111 48.7673L104.952 39.1262V52.8918L99.1438 60.2278C98.6265 60.8811 98.7368 61.83 99.3901 62.3473C100.043 62.8645 100.992 62.7542 101.51 62.1009L104.952 57.7528V60.5242L99.1438 67.8602C98.6265 68.5135 98.7368 69.4624 99.3901 69.9797C100.043 70.4969 100.992 70.3867 101.51 69.7334L104.952 65.3852V69.4912C104.952 70.3245 105.628 71 106.461 71C107.294 71 107.97 70.3245 107.97 69.4912V65.2867L111.49 69.7334C112.008 70.3867 112.957 70.4969 113.61 69.9797C114.263 69.4624 114.373 68.5135 113.856 67.8602L107.97 60.4257V57.6543L111.49 62.1009C112.008 62.7542 112.957 62.8645 113.61 62.3473C114.263 61.83 114.373 60.8811 113.856 60.2278L107.97 52.7933V39.0481L117.246 48.3245L118.341 57.7439C118.437 58.5716 119.186 59.1646 120.014 59.0684C120.841 58.9722 121.434 58.2233 121.338 57.3956L120.683 51.7617L122.643 53.7215L123.738 63.1409C123.834 63.9686 124.583 64.5616 125.411 64.4654C126.238 64.3692 126.831 63.6203 126.735 62.7926L126.08 57.1587L129.496 60.5747C130.086 61.1639 131.041 61.1639 131.63 60.5747C132.219 59.9855 132.219 59.0302 131.63 58.441L128.284 55.0947L133.793 55.7349C134.621 55.8311 135.37 55.2381 135.466 54.4104C135.562 53.5828 134.969 52.8338 134.141 52.7376L124.847 51.6574L122.887 49.6977L128.396 50.338C129.224 50.4341 129.973 49.8411 130.069 49.0135C130.165 48.1858 129.572 47.4368 128.744 47.3406L119.45 46.2605L110.159 36.9697H123.167L130.601 42.8562C131.255 43.3734 132.204 43.2632 132.721 42.6099C133.238 41.9566 133.128 41.0077 132.475 40.4905L128.028 36.9697H130.799L138.234 42.8562C138.887 43.3735 139.836 43.2632 140.353 42.6099C140.871 41.9566 140.76 41.0077 140.107 40.4905L135.66 36.9697H140.491C141.325 36.9697 142 36.2942 142 35.461C142 34.6277 141.325 33.9522 140.491 33.9522H135.759L140.107 30.5095C140.76 29.9923 140.871 29.0434 140.353 28.3901C139.836 27.7368 138.887 27.6265 138.234 28.1438L130.898 33.9522H128.126L132.475 30.5095C133.128 29.9923 133.238 29.0434 132.721 28.3901C132.204 27.7368 131.255 27.6265 130.601 28.1438L123.265 33.9522H110.126L119.324 24.754L128.744 23.6593C129.572 23.5632 130.165 22.8142 130.068 21.9865C129.972 21.1588 129.223 20.5658 128.396 20.662L122.762 21.3168L124.721 19.357L134.141 18.2623C134.969 18.1661 135.562 17.4172 135.465 16.5895C135.369 15.7618 134.62 15.1688 133.793 15.265L128.159 15.9198L131.575 12.5038C132.164 11.9146 132.164 10.9593 131.575 10.3701C130.985 9.78093 130.03 9.78093 129.441 10.3701L126.095 13.7161L126.735 8.20737C126.831 7.37968 126.238 6.63073 125.411 6.53454C124.583 6.43835 123.834 7.03135 123.738 7.85904L122.658 17.1534L120.698 19.1132L121.338 13.6044C121.434 12.7767 120.841 12.0277 120.014 11.9316C119.186 11.8354 118.437 12.4284 118.341 13.2561L117.261 22.5504L107.97 31.8413V18.833L113.856 11.3984C114.373 10.7452 114.263 9.79625 113.61 9.279C112.957 8.76175 112.008 8.87203 111.49 9.52531L107.97 13.9719V11.2005L113.856 3.76598C114.373 3.1127 114.263 2.1638 113.61 1.64655C112.957 1.1293 112.008 1.23958 111.49 1.89286L107.97 6.33946V1.50875C107.97 0.675491 107.294 0 106.461 0Z" fill="url(#paint0_linear_2_1158)"/>
<path fill-rule="evenodd" clip-rule="evenodd" d="M74.4731 89C73.898 89 73.4318 89.4662 73.4318 90.0413V93.3072L71.0558 90.3063C70.6989 89.8555 70.044 89.7794 69.5931 90.1364C69.1423 90.4933 69.0662 91.1482 69.4232 91.5991L73.4318 96.662V98.5746L71.0559 95.5738C70.6989 95.1229 70.044 95.0468 69.5932 95.4038C69.1423 95.7608 69.0662 96.4157 69.4232 96.8665L73.4318 101.929V110.921L66.7681 104.257L66.0226 97.8429C65.9563 97.2717 65.4394 96.8624 64.8682 96.9288C64.2969 96.9952 63.8877 97.5121 63.9541 98.0833L64.3959 101.885L63.0434 100.533L62.2979 94.1182C62.2315 93.547 61.7147 93.1377 61.1434 93.2041C60.5722 93.2705 60.163 93.7873 60.2293 94.3586L60.6712 98.1604L58.6676 96.1568C58.261 95.7502 57.6017 95.7502 57.195 96.1568C56.7884 96.5635 56.7884 97.2227 57.195 97.6294L59.2469 99.6812L55.3586 99.2293C54.7874 99.163 54.2705 99.5722 54.2041 100.143C54.1378 100.715 54.547 101.232 55.1182 101.298L61.6191 102.053L62.9716 103.406L59.0834 102.954C58.5121 102.888 57.9953 103.297 57.9289 103.868C57.8625 104.439 58.2718 104.956 58.843 105.023L65.3438 105.778L71.9975 112.432H62.4972L57.4343 108.423C56.9835 108.066 56.3286 108.142 55.9716 108.593C55.6147 109.044 55.6908 109.699 56.1416 110.056L59.1424 112.432H57.2297L52.1668 108.423C51.7159 108.066 51.0611 108.142 50.7041 108.593C50.3471 109.044 50.4232 109.699 50.8741 110.056L53.8749 112.432H51.0412C50.4662 112.432 50 112.898 50 113.473C50 114.048 50.4662 114.514 51.0412 114.514H53.9429L50.8741 116.944C50.4232 117.301 50.3471 117.956 50.7041 118.407C51.0611 118.858 51.7159 118.934 52.1668 118.577L57.2977 114.514H59.2105L56.1416 116.944C55.6908 117.301 55.6147 117.956 55.9716 118.407C56.3286 118.858 56.9835 118.934 57.4343 118.577L62.5653 114.514H71.975L65.2574 121.232L58.8428 121.977C58.2716 122.044 57.8623 122.561 57.9287 123.132C57.9951 123.703 58.512 124.112 59.0832 124.046L62.8852 123.604L61.5327 124.957L55.1181 125.702C54.5468 125.768 54.1376 126.285 54.204 126.857C54.2703 127.428 54.7872 127.837 55.3585 127.771L59.1605 127.329L57.1568 129.333C56.7501 129.739 56.7501 130.398 57.1568 130.805C57.5634 131.212 58.2227 131.212 58.6293 130.805L60.6811 128.753L60.2293 132.641C60.1629 133.213 60.5721 133.73 61.1434 133.796C61.7146 133.862 62.2315 133.453 62.2979 132.882L63.0533 126.381L64.4059 125.029L63.954 128.917C63.8876 129.488 64.2969 130.005 64.8681 130.071C65.4393 130.138 65.9562 129.728 66.0226 129.157L66.7781 122.656L73.4318 116.003V125.503L69.4232 130.566C69.0662 131.017 69.1423 131.671 69.5932 132.028C70.044 132.385 70.6989 132.309 71.0559 131.858L73.4318 128.858V130.77L69.4232 135.833C69.0662 136.284 69.1423 136.939 69.5932 137.296C70.044 137.653 70.6989 137.577 71.0559 137.126L73.4318 134.125V136.959C73.4318 137.534 73.898 138 74.4731 138C75.0482 138 75.5143 137.534 75.5143 136.959V134.057L77.9441 137.126C78.3011 137.577 78.956 137.653 79.4068 137.296C79.8577 136.939 79.9338 136.284 79.5768 135.833L75.5143 130.702V128.79L77.9441 131.858C78.3011 132.309 78.956 132.385 79.4068 132.028C79.8577 131.671 79.9338 131.017 79.5768 130.566L75.5143 125.435V115.949L81.9164 122.351L82.6718 128.851C82.7382 129.423 83.2551 129.832 83.8263 129.766C84.3975 129.699 84.8068 129.182 84.7404 128.611L84.2886 124.723L85.641 126.075L86.3965 132.576C86.4629 133.147 86.9798 133.557 87.551 133.49C88.1222 133.424 88.5315 132.907 88.4651 132.336L88.0132 128.448L90.3707 130.805C90.7774 131.212 91.4366 131.212 91.8433 130.805C92.2499 130.398 92.2499 129.739 91.8433 129.333L89.5339 127.023L93.3359 127.465C93.9072 127.531 94.424 127.122 94.4904 126.551C94.5568 125.98 94.1476 125.463 93.5763 125.396L87.1617 124.651L85.8092 123.298L89.6112 123.74C90.1825 123.807 90.6993 123.397 90.7657 122.826C90.8321 122.255 90.4229 121.738 89.8516 121.672L83.437 120.926L77.0251 114.514H86.0024L91.1334 118.577C91.5842 118.934 92.2391 118.858 92.5961 118.407C92.953 117.956 92.8769 117.301 92.4261 116.944L89.3572 114.514H91.27L96.4009 118.577C96.8518 118.934 97.5066 118.858 97.8636 118.407C98.2206 117.956 98.1445 117.301 97.6936 116.944L94.6248 114.514H97.9587C98.5338 114.514 99 114.048 99 113.473C99 112.898 98.5338 112.432 97.9588 112.432H94.6928L97.6936 110.056C98.1445 109.699 98.2206 109.044 97.8636 108.593C97.5066 108.142 96.8518 108.066 96.4009 108.423L91.338 112.432H89.4253L92.4261 110.056C92.8769 109.699 92.953 109.044 92.5961 108.593C92.2391 108.142 91.5842 108.066 91.1334 108.423L86.0705 112.432H77.0026L83.3506 106.084L89.8515 105.328C90.4227 105.262 90.8319 104.745 90.7655 104.174C90.6992 103.603 90.1823 103.193 89.6111 103.26L85.7228 103.712L87.0753 102.359L93.5762 101.604C94.1474 101.537 94.5566 101.02 94.4903 100.449C94.4239 99.8779 93.907 99.4686 93.3358 99.535L89.4475 99.9869L91.805 97.6294C92.2116 97.2228 92.2116 96.5635 91.805 96.1569C91.3984 95.7502 90.7391 95.7502 90.3324 96.1569L88.0232 98.4661L88.4651 94.6642C88.5314 94.093 88.1222 93.5761 87.551 93.5098C86.9798 93.4434 86.4629 93.8526 86.3965 94.4238L85.651 100.838L84.2985 102.191L84.7404 98.3889C84.8067 97.8177 84.3975 97.3008 83.8263 97.2345C83.255 97.1681 82.7382 97.5773 82.6718 98.1485L81.9263 104.563L75.5143 110.975V101.997L79.5768 96.8665C79.9338 96.4157 79.8577 95.7608 79.4068 95.4038C78.956 95.0468 78.3011 95.123 77.9441 95.5738L75.5143 98.6426V96.7299L79.5768 91.5991C79.9338 91.1482 79.8577 90.4933 79.4068 90.1364C78.956 89.7794 78.3011 89.8555 77.9441 90.3063L75.5143 93.3751V90.0413C75.5143 89.4662 75.0482 89 74.4731 89Z" fill="url(#paint1_linear_2_1158)"/>
<path fill-rule="evenodd" clip-rule="evenodd" d="M29.4676 30C28.7752 30 28.2138 30.5613 28.2138 31.2538V35.1862L25.353 31.5729C24.9231 31.0301 24.1346 30.9384 23.5917 31.3683C23.0489 31.7981 22.9572 32.5866 23.3871 33.1295L28.2138 39.2257V41.5286L25.353 37.9154C24.9232 37.3725 24.1346 37.2809 23.5918 37.7107C23.0489 38.1405 22.9573 38.9291 23.3871 39.4719L28.2138 45.5681V56.3947L20.1902 48.3711L19.2926 40.6475C19.2126 39.9597 18.5903 39.467 17.9025 39.5469C17.2147 39.6268 16.7219 40.2492 16.8018 40.937L17.3338 45.5147L15.7053 43.8862L14.8077 36.1627C14.7278 35.4749 14.1054 34.9821 13.4176 35.0621C12.7298 35.142 12.237 35.7644 12.317 36.4522L12.8489 41.0299L10.4365 38.6174C9.94687 38.1278 9.15304 38.1278 8.66342 38.6174C8.1738 39.107 8.1738 39.9009 8.66342 40.3905L11.134 42.861L6.45223 42.317C5.76444 42.237 5.14207 42.7298 5.06214 43.4176C4.9822 44.1054 5.47498 44.7278 6.16278 44.8077L13.9903 45.7174L15.6188 47.3459L10.9371 46.8018C10.2493 46.7219 9.62695 47.2146 9.54702 47.9024C9.46709 48.5902 9.95986 49.2126 10.6477 49.2925L18.4752 50.2022L26.4868 58.2138H15.0477L8.95156 53.3871C8.40869 52.9572 7.62017 53.0489 7.19034 53.5917C6.76052 54.1346 6.85215 54.9231 7.39502 55.353L11.0082 58.2138H8.70513L2.60901 53.3871C2.06614 52.9572 1.27762 53.0489 0.84779 53.5917C0.417964 54.1346 0.509601 54.9231 1.05247 55.353L4.66569 58.2138H1.25375C0.561323 58.2138 0 58.7751 0 59.4676C0 60.16 0.561324 60.7213 1.25375 60.7213H4.74759L1.05247 63.647C0.509602 64.0768 0.417964 64.8653 0.847791 65.4082C1.27762 65.9511 2.06614 66.0427 2.60901 65.6129L8.78704 60.7213H11.0901L7.39502 63.647C6.85215 64.0768 6.76052 64.8653 7.19034 65.4082C7.62017 65.9511 8.40869 66.0427 8.95156 65.6129L15.1296 60.7213H26.4597L18.3711 68.8099L10.6474 69.7075C9.95964 69.7874 9.46687 70.4098 9.5468 71.0976C9.62673 71.7854 10.2491 72.2781 10.9369 72.1982L15.5148 71.6662L13.8863 73.2947L6.16255 74.1923C5.47476 74.2723 4.98198 74.8946 5.06191 75.5824C5.14185 76.2702 5.76421 76.763 6.45201 76.6831L11.03 76.151L8.61733 78.5637C8.12771 79.0533 8.12771 79.8471 8.61733 80.3367C9.10695 80.8264 9.90078 80.8264 10.3904 80.3367L12.861 77.8662L12.3169 82.5479C12.237 83.2357 12.7297 83.858 13.4175 83.938C14.1053 84.0179 14.7277 83.5251 14.8076 82.8373L15.7173 75.0098L17.3459 73.3813L16.8018 78.063C16.7218 78.7508 17.2146 79.3732 17.9024 79.4531C18.5902 79.533 19.2126 79.0403 19.2925 78.3525L20.2022 70.525L28.2138 62.5133V73.9523L23.3871 80.0485C22.9573 80.5913 23.0489 81.3799 23.5918 81.8097C24.1346 82.2395 24.9232 82.1479 25.353 81.605L28.2138 77.9918V80.2948L23.3871 86.3909C22.9573 86.9338 23.0489 87.7223 23.5918 88.1521C24.1346 88.582 24.9232 88.4903 25.353 87.9474L28.2138 84.3342V87.7463C28.2138 88.4387 28.7752 89 29.4676 89C30.16 89 30.7213 88.4387 30.7213 87.7463V84.2523L33.647 87.9474C34.0768 88.4903 34.8654 88.582 35.4082 88.1521C35.9511 87.7223 36.0427 86.9338 35.6129 86.3909L30.7213 80.2129V77.9099L33.647 81.605C34.0768 82.1479 34.8654 82.2395 35.4082 81.8097C35.9511 81.3799 36.0427 80.5913 35.6129 80.0485L30.7213 73.8705V62.4484L38.4299 70.157L39.3396 77.9844C39.4195 78.6722 40.0419 79.165 40.7297 79.085C41.4175 79.0051 41.9102 78.3827 41.8303 77.6949L41.2862 73.0133L42.9147 74.6418L43.8244 82.4692C43.9043 83.157 44.5267 83.6498 45.2145 83.5699C45.9023 83.4899 46.3951 82.8675 46.3151 82.1798L45.771 77.4981L48.6097 80.3367C49.0993 80.8263 49.8931 80.8263 50.3827 80.3367C50.8723 79.8471 50.8723 79.0532 50.3827 78.5636L47.602 75.7829L52.18 76.315C52.8678 76.3949 53.4902 75.9021 53.5701 75.2143C53.65 74.5265 53.1573 73.9041 52.4695 73.8242L44.7457 72.9266L43.1172 71.2981L47.6952 71.8301C48.383 71.9101 49.0053 71.4173 49.0853 70.7295C49.1652 70.0417 48.6724 69.4193 47.9846 69.3394L40.2609 68.4418L32.5404 60.7213H43.3499L49.5279 65.6129C50.0708 66.0427 50.8593 65.9511 51.2891 65.4082C51.719 64.8653 51.6273 64.0768 51.0844 63.647L47.3893 60.7213H49.6925L55.8705 65.6129C56.4134 66.0427 57.2019 65.9511 57.6317 65.4082C58.0615 64.8654 57.9699 64.0768 57.427 63.647L53.7319 60.7213H57.7463C58.4387 60.7213 59 60.16 59 59.4676C59 58.7751 58.4387 58.2138 57.7463 58.2138H53.8138L57.427 55.353C57.9699 54.9231 58.0615 54.1346 57.6317 53.5918C57.2019 53.0489 56.4134 52.9573 55.8705 53.3871L49.7744 58.2138H47.4712L51.0844 55.353C51.6273 54.9231 51.719 54.1346 51.2891 53.5917C50.8593 53.0489 50.0708 52.9572 49.5279 53.3871L43.4318 58.2138H32.5133L40.1569 50.5703L47.9844 49.6606C48.6722 49.5807 49.165 48.9583 49.085 48.2705C49.0051 47.5827 48.3827 47.0899 47.695 47.1698L43.0132 47.7139L44.6417 46.0854L52.4693 45.1757C53.1571 45.0958 53.6498 44.4734 53.5699 43.7856C53.49 43.0979 52.8676 42.6051 52.1798 42.685L47.498 43.2291L50.3366 40.3905C50.8262 39.9009 50.8262 39.1071 50.3366 38.6174C49.847 38.1278 49.0532 38.1278 48.5636 38.6174L45.7831 41.3979L46.3151 36.8202C46.395 36.1324 45.9022 35.51 45.2144 35.4301C44.5266 35.3502 43.9043 35.843 43.8243 36.5308L42.9268 44.2542L41.2982 45.8828L41.8302 41.305C41.9102 40.6173 41.4174 39.9949 40.7296 39.915C40.0418 39.835 39.4194 40.3278 39.3395 41.0156L38.4419 48.7391L30.7213 56.4596V45.6499L35.6129 39.4719C36.0427 38.9291 35.9511 38.1405 35.4082 37.7107C34.8654 37.2809 34.0768 37.3725 33.647 37.9154L30.7213 41.6105V39.3075L35.6129 33.1295C36.0427 32.5866 35.9511 31.7981 35.4082 31.3683C34.8653 30.9384 34.0768 31.0301 33.647 31.5729L30.7213 35.268V31.2537C30.7213 30.5613 30.16 30 29.4676 30Z" fill="url(#paint2_linear_2_1158)"/>
<defs>
<linearGradient id="paint0_linear_2_1158" x1="132.731" y1="5.8575" x2="81.7885" y2="55.5575" gradientUnits="userSpaceOnUse">
<stop stop-color="#D6E9FF"/>
<stop offset="1" stop-color="#2898FF"/>
</linearGradient>
<linearGradient id="paint1_linear_2_1158" x1="92.6031" y1="93.0425" x2="57.4456" y2="127.343" gradientUnits="userSpaceOnUse">
<stop stop-color="#D6E9FF"/>
<stop offset="1" stop-color="#2898FF"/>
</linearGradient>
<linearGradient id="paint2_linear_2_1158" x1="51.2976" y1="34.8675" x2="8.96506" y2="76.1675" gradientUnits="userSpaceOnUse">
<stop stop-color="#D6E9FF"/>
<stop offset="1" stop-color="#2898FF"/>
</linearGradient>
</defs>
</svg>
